# xmcd
#
# Track frame offsets: 
#        150
#        29535
#        63595
#        87275
#        114483
#        136022
#        156589
#        172612
#
# Disc length: 2718 seconds
#
# Revision: 8
# Processed by: cddbd v1.5.2PL0 Copyright (c) Steve Scherf et al.
# Submitted via: ExactAudioCopyFreeDBPlugin 1.0
#
DISCID=610a9c08
DTITLE=Taj Mahal and the Hula Blues Band - Taj Mahal and the Hula Blue
DTITLE=s
DYEAR=1997
DGENRE=Blues
TTITLE0=The Calypsonians
TTITLE1=Coconut Man
TTITLE2=Sacred Island (Moku La'a)
TTITLE3=Betty 'n' Dupree
TTITLE4=The New Hula Blues
TTITLE5=No Na Mamo
TTITLE6=Mailbox Blues
TTITLE7=Kanikapila
EXTD=
EXTT0=
EXTT1=
EXTT2=
EXTT3=
EXTT4=
EXTT5=
EXTT6=
EXTT7=
PLAYORDER=
